<svg xmlns="http://www.w3.org/2000/svg" width="128" height="128" viewBox="0 0 128 128" fill="none">
  <defs>
    <linearGradient id="g" x1="20" y1="16" x2="110" y2="112" gradientUnits="userSpaceOnUse">
      <stop stop-color="#7C3AED"/>
      <stop offset="1" stop-color="#A78BFA"/>
    </linearGradient>
    <filter id="s" x="-20%" y="-20%" width="140%" height="140%">
      <feDropShadow dx="0" dy="10" stdDeviation="8" flood-color="#7C3AED" flood-opacity="0.25"/>
    </filter>
  </defs>

  <!-- Premium rounded tile -->
  <rect x="14" y="14" width="100" height="100" rx="26" fill="url(#g)" filter="url(#s)"/>

  <!-- Minimal fox head mark (white) -->
  <path d="M64 30
           C54 38, 44 44, 38 44
           C40 56, 44 70, 54 78
           C58 82, 61 86, 64 90
           C67 86, 70 82, 74 78
           C84 70, 88 56, 90 44
           C84 44, 74 38, 64 30Z"
        fill="#FFFFFF" opacity="0.97"/>

  <!-- Inner face cut (purple tint) -->
  <path d="M64 42
           C56 48, 50 52, 46 52
           C48 60, 52 70, 58 74
           C60 76, 62 78, 64 80
           C66 78, 68 76, 70 74
           C76 70, 80 60, 82 52
           C78 52, 72 48, 64 42Z"
        fill="#6D28D9" opacity="0.20"/>

  <!-- Eyes -->
  <path d="M53.5 62.5c2.3 0 4.2-1.7 4.7-3.9c-1.5 0.7-3 1-4.7 1s-3.2-0.3-4.7-1c0.5 2.2 2.4 3.9 4.7 3.9Z" fill="#FFFFFF" opacity="0.95"/>
  <path d="M74.5 62.5c2.3 0 4.2-1.7 4.7-3.9c-1.5 0.7-3 1-4.7 1s-3.2-0.3-4.7-1c0.5 2.2 2.4 3.9 4.7 3.9Z" fill="#FFFFFF" opacity="0.95"/>

  <!-- Nose -->
  <path d="M64 68.8c2.2 0 4 1.8 4 4c0 2.2-1.8 4-4 4s-4-1.8-4-4c0-2.2 1.8-4 4-4Z"
        fill="#FFFFFF" opacity="0.95"/>
</svg>
