<svg xmlns="http://www.w3.org/2000/svg" viewBox="0 0 96 96">
  <defs>
    <linearGradient id="g" x1="0" y1="0" x2="1" y2="1">
      <stop offset="0%" stop-color="#7C3AED"/>
      <stop offset="100%" stop-color="#A78BFA"/>
    </linearGradient>
  </defs>

  <!-- Outer soft tile -->
  <rect x="8" y="8" width="80" height="80" rx="24" fill="url(#g)"/>

  <!-- Abstract flame / drop -->
  <path d="
    M48 22
    C38 36 34 44 34 52
    C34 64 40 72 48 76
    C56 72 62 64 62 52
    C62 44 58 36 48 22
    Z
  " fill="#FFFFFF" opacity="0.95"/>

  <!-- Inner cut for depth -->
  <path d="
    M48 34
    C42 44 40 48 40 54
    C40 60 44 64 48 66
    C52 64 56 60 56 54
    C56 48 54 44 48 34
    Z
  " fill="#6D28D9" opacity="0.22"/>
</svg>
